<svg xmlns="http://www.w3.org/2000/svg" version="1.1" viewBox="0 0 385 385"><rect x="0" y="0" width="385" height="385" rx="3" fill="#202020"/><rect id="p" x="-15" y="-15" width="15" height="15" rx="2"/><use href="#p" x="16" y="16" fill="#000000"/><use href="#p" x="32" y="16" fill="#000000"/><use href="#p" x="48" y="16" fill="#000000"/><use href="#p" x="64" y="16" fill="#000000"/><use href="#p" x="80" y="16" fill="#000000"/><use href="#p" x="96" y="16" fill="#000000"/><use href="#p" x="112" y="16" fill="#000000"/><use href="#p" x="128" y="16" fill="#000000"/><use href="#p" x="144" y="16" fill="#000000"/><use href="#p" x="160" y="16" fill="#000000"/><use href="#p" x="176" y="16" fill="#000000"/><use href="#p" x="192" y="16" fill="#000000"/><use href="#p" x="208" y="16" fill="#000000"/><use href="#p" x="224" y="16" fill="#000000"/><use href="#p" x="240" y="16" fill="#000000"/><use href="#p" x="256" y="16" fill="#000000"/><use href="#p" x="272" y="16" fill="#000000"/><use href="#p" x="288" y="16" fill="#000000"/><use href="#p" x="304" y="16" fill="#000000"/><use href="#p" x="320" y="16" fill="#000000"/><use href="#p" x="336" y="16" fill="#000000"/><use href="#p" x="352" y="16" fill="#000000"/><use href="#p" x="368" y="16" fill="#000000"/><use href="#p" x="384" y="16" fill="#000000"/><use href="#p" x="16" y="32" fill="#000000"/><use href="#p" x="32" y="32" fill="#000000"/><use href="#p" x="48" y="32" fill="#000000"/><use href="#p" x="64" y="32" fill="#000000"/><use href="#p" x="80" y="32" fill="#000000"/><use href="#p" x="96" y="32" fill="#000000"/><use href="#p" x="112" y="32" fill="#000000"/><use href="#p" x="128" y="32" fill="#000000"/><use href="#p" x="144" y="32" fill="#000000"/><use href="#p" x="160" y="32" fill="#000000"/><use href="#p" x="176" y="32" fill="#000000"/><use href="#p" x="192" y="32" fill="#000000"/><use href="#p" x="208" y="32" fill="#000000"/><use href="#p" x="224" y="32" fill="#000000"/><use href="#p" x="240" y="32" fill="#000000"/><use href="#p" x="256" y="32" fill="#000000"/><use href="#p" x="272" y="32" fill="#000000"/><use href="#p" x="288" y="32" fill="#000000"/><use href="#p" x="304" y="32" fill="#000000"/><use href="#p" x="320" y="32" fill="#000000"/><use href="#p" x="336" y="32" fill="#000000"/><use href="#p" x="352" y="32" fill="#000000"/><use href="#p" x="368" y="32" fill="#000000"/><use href="#p" x="384" y="32" fill="#000000"/><use href="#p" x="16" y="48" fill="#000000"/><use href="#p" x="32" y="48" fill="#070c27"/><use href="#p" x="48" y="48" fill="#000000"/><use href="#p" x="64" y="48" fill="#000000"/><use href="#p" x="80" y="48" fill="#000000"/><use href="#p" x="96" y="48" fill="#000000"/><use href="#p" x="112" y="48" fill="#000000"/><use href="#p" x="128" y="48" fill="#000000"/><use href="#p" x="144" y="48" fill="#000000"/><use href="#p" x="160" y="48" fill="#000000"/><use href="#p" x="176" y="48" fill="#000000"/><use href="#p" x="192" y="48" fill="#000000"/><use href="#p" x="208" y="48" fill="#000000"/><use href="#p" x="224" y="48" fill="#000000"/><use href="#p" x="240" y="48" fill="#000000"/><use href="#p" x="256" y="48" fill="#000000"/><use href="#p" x="272" y="48" fill="#000000"/><use href="#p" x="288" y="48" fill="#000000"/><use href="#p" x="304" y="48" fill="#000000"/><use href="#p" x="320" y="48" fill="#000000"/><use href="#p" x="336" y="48" fill="#000000"/><use href="#p" x="352" y="48" fill="#000000"/><use href="#p" x="368" y="48" fill="#000000"/><use href="#p" x="384" y="48" fill="#000000"/><use href="#p" x="16" y="64" fill="#000000"/><use href="#p" x="32" y="64" fill="#000000"/><use href="#p" x="48" y="64" fill="#000000"/><use href="#p" x="64" y="64" fill="#000000"/><use href="#p" x="80" y="64" fill="#000000"/><use href="#p" x="96" y="64" fill="#000000"/><use href="#p" x="112" y="64" fill="#000000"/><use href="#p" x="128" y="64" fill="#000000"/><use href="#p" x="144" y="64" fill="#000000"/><use href="#p" x="160" y="64" fill="#000000"/><use href="#p" x="176" y="64" fill="#000000"/><use href="#p" x="192" y="64" fill="#000000"/><use href="#p" x="208" y="64" fill="#000000"/><use href="#p" x="224" y="64" fill="#000000"/><use href="#p" x="240" y="64" fill="#000000"/><use href="#p" x="256" y="64" fill="#000000"/><use href="#p" x="272" y="64" fill="#000000"/><use href="#p" x="288" y="64" fill="#000000"/><use href="#p" x="304" y="64" fill="#000000"/><use href="#p" x="320" y="64" fill="#000000"/><use href="#p" x="336" y="64" fill="#000000"/><use href="#p" x="352" y="64" fill="#000000"/><use href="#p" x="368" y="64" fill="#000000"/><use href="#p" x="384" y="64" fill="#000000"/><use href="#p" x="16" y="80" fill="#000000"/><use href="#p" x="32" y="80" fill="#000000"/><use href="#p" x="48" y="80" fill="#000000"/><use href="#p" x="64" y="80" fill="#000000"/><use href="#p" x="80" y="80" fill="#000000"/><use href="#p" x="96" y="80" fill="#000000"/><use href="#p" x="112" y="80" fill="#000000"/><use href="#p" x="128" y="80" fill="#000000"/><use href="#p" x="144" y="80" fill="#000000"/><use href="#p" x="160" y="80" fill="#000000"/><use href="#p" x="176" y="80" fill="#000000"/><use href="#p" x="192" y="80" fill="#000000"/><use href="#p" x="208" y="80" fill="#000000"/><use href="#p" x="224" y="80" fill="#000000"/><use href="#p" x="240" y="80" fill="#000000"/><use href="#p" x="256" y="80" fill="#000000"/><use href="#p" x="272" y="80" fill="#1f023e"/><use href="#p" x="288" y="80" fill="#110427"/><use href="#p" x="304" y="80" fill="#000000"/><use href="#p" x="320" y="80" fill="#000000"/><use href="#p" x="336" y="80" fill="#000000"/><use href="#p" x="352" y="80" fill="#000000"/><use href="#p" x="368" y="80" fill="#000000"/><use href="#p" x="384" y="80" fill="#000000"/><use href="#p" x="16" y="96" fill="#0e1f4d"/><use href="#p" x="32" y="96" fill="#1a3087"/><use href="#p" x="48" y="96" fill="#11286e"/><use href="#p" x="64" y="96" fill="#13296d"/><use href="#p" x="80" y="96" fill="#090b27"/><use href="#p" x="96" y="96" fill="#000000"/><use href="#p" x="112" y="96" fill="#000000"/><use href="#p" x="128" y="96" fill="#000000"/><use href="#p" x="144" y="96" fill="#000000"/><use href="#p" x="160" y="96" fill="#000000"/><use href="#p" x="176" y="96" fill="#000000"/><use href="#p" x="192" y="96" fill="#000000"/><use href="#p" x="208" y="96" fill="#000000"/><use href="#p" x="224" y="96" fill="#000000"/><use href="#p" x="240" y="96" fill="#000000"/><use href="#p" x="256" y="96" fill="#000000"/><use href="#p" x="272" y="96" fill="#4e1379"/><use href="#p" x="288" y="96" fill="#a51fe8"/><use href="#p" x="304" y="96" fill="#681da5"/><use href="#p" x="320" y="96" fill="#000000"/><use href="#p" x="336" y="96" fill="#000000"/><use href="#p" x="352" y="96" fill="#000000"/><use href="#p" x="368" y="96" fill="#0f0527"/><use href="#p" x="384" y="96" fill="#000000"/><use href="#p" x="16" y="112" fill="#0f225a"/><use href="#p" x="32" y="112" fill="#122259"/><use href="#p" x="48" y="112" fill="#122c6c"/><use href="#p" x="64" y="112" fill="#102764"/><use href="#p" x="80" y="112" fill="#112c76"/><use href="#p" x="96" y="112" fill="#133388"/><use href="#p" x="112" y="112" fill="#112c76"/><use href="#p" x="128" y="112" fill="#09173e"/><use href="#p" x="144" y="112" fill="#000000"/><use href="#p" x="160" y="112" fill="#000000"/><use href="#p" x="176" y="112" fill="#000000"/><use href="#p" x="192" y="112" fill="#000000"/><use href="#p" x="208" y="112" fill="#000000"/><use href="#p" x="224" y="112" fill="#000000"/><use href="#p" x="240" y="112" fill="#000000"/><use href="#p" x="256" y="112" fill="#651590"/><use href="#p" x="272" y="112" fill="#8b19b9"/><use href="#p" x="288" y="112" fill="#52127e"/><use href="#p" x="304" y="112" fill="#891fe3"/><use href="#p" x="320" y="112" fill="#6a04b1"/><use href="#p" x="336" y="112" fill="#120327"/><use href="#p" x="352" y="112" fill="#000000"/><use href="#p" x="368" y="112" fill="#000000"/><use href="#p" x="384" y="112" fill="#000000"/><use href="#p" x="16" y="128" fill="#000000"/><use href="#p" x="32" y="128" fill="#000000"/><use href="#p" x="48" y="128" fill="#090b27"/><use href="#p" x="64" y="128" fill="#000000"/><use href="#p" x="80" y="128" fill="#07193e"/><use href="#p" x="96" y="128" fill="#000000"/><use href="#p" x="112" y="128" fill="#000000"/><use href="#p" x="128" y="128" fill="#19266c"/><use href="#p" x="144" y="128" fill="#4d37bb"/><use href="#p" x="160" y="128" fill="#5135be"/><use href="#p" x="176" y="128" fill="#3934ad"/><use href="#p" x="192" y="128" fill="#17184c"/><use href="#p" x="208" y="128" fill="#0a1d4f"/><use href="#p" x="224" y="128" fill="#0b1d4f"/><use href="#p" x="240" y="128" fill="#000000"/><use href="#p" x="256" y="128" fill="#661594"/><use href="#p" x="272" y="128" fill="#480e65"/><use href="#p" x="288" y="128" fill="#2d064b"/><use href="#p" x="304" y="128" fill="#6d20c0"/><use href="#p" x="320" y="128" fill="#8708db"/><use href="#p" x="336" y="128" fill="#2a0b5a"/><use href="#p" x="352" y="128" fill="#371381"/><use href="#p" x="368" y="128" fill="#260d5b"/><use href="#p" x="384" y="128" fill="#000000"/><use href="#p" x="16" y="144" fill="#000000"/><use href="#p" x="32" y="144" fill="#000000"/><use href="#p" x="48" y="144" fill="#000000"/><use href="#p" x="64" y="144" fill="#000000"/><use href="#p" x="80" y="144" fill="#000000"/><use href="#p" x="96" y="144" fill="#000000"/><use href="#p" x="112" y="144" fill="#000000"/><use href="#p" x="128" y="144" fill="#282678"/><use href="#p" x="144" y="144" fill="#4431a4"/><use href="#p" x="160" y="144" fill="#3f2584"/><use href="#p" x="176" y="144" fill="#2d2170"/><use href="#p" x="192" y="144" fill="#4229a1"/><use href="#p" x="208" y="144" fill="#372581"/><use href="#p" x="224" y="144" fill="#000000"/><use href="#p" x="240" y="144" fill="#22124b"/><use href="#p" x="256" y="144" fill="#8d13ae"/><use href="#p" x="272" y="144" fill="#af06a9"/><use href="#p" x="288" y="144" fill="#790980"/><use href="#p" x="304" y="144" fill="#6809b5"/><use href="#p" x="320" y="144" fill="#8905d3"/><use href="#p" x="336" y="144" fill="#3f1291"/><use href="#p" x="352" y="144" fill="#42149d"/><use href="#p" x="368" y="144" fill="#290c5a"/><use href="#p" x="384" y="144" fill="#000000"/><use href="#p" x="16" y="160" fill="#000000"/><use href="#p" x="32" y="160" fill="#000000"/><use href="#p" x="48" y="160" fill="#000000"/><use href="#p" x="64" y="160" fill="#000000"/><use href="#p" x="80" y="160" fill="#000000"/><use href="#p" x="96" y="160" fill="#000000"/><use href="#p" x="112" y="160" fill="#000000"/><use href="#p" x="128" y="160" fill="#000000"/><use href="#p" x="144" y="160" fill="#14133b"/><use href="#p" x="160" y="160" fill="#19184b"/><use href="#p" x="176" y="160" fill="#17123b"/><use href="#p" x="192" y="160" fill="#2e1c68"/><use href="#p" x="208" y="160" fill="#3e2fa7"/><use href="#p" x="224" y="160" fill="#3231ad"/><use href="#p" x="240" y="160" fill="#211e6c"/><use href="#p" x="256" y="160" fill="#d409d7"/><use href="#p" x="272" y="160" fill="#9d0595"/><use href="#p" x="288" y="160" fill="#8c0d9b"/><use href="#p" x="304" y="160" fill="#8b10d6"/><use href="#p" x="320" y="160" fill="#9f07da"/><use href="#p" x="336" y="160" fill="#481093"/><use href="#p" x="352" y="160" fill="#260f66"/><use href="#p" x="368" y="160" fill="#301375"/><use href="#p" x="384" y="160" fill="#000000"/><use href="#p" x="16" y="176" fill="#000000"/><use href="#p" x="32" y="176" fill="#000000"/><use href="#p" x="48" y="176" fill="#000000"/><use href="#p" x="64" y="176" fill="#000000"/><use href="#p" x="80" y="176" fill="#000000"/><use href="#p" x="96" y="176" fill="#000000"/><use href="#p" x="112" y="176" fill="#000000"/><use href="#p" x="128" y="176" fill="#000000"/><use href="#p" x="144" y="176" fill="#000000"/><use href="#p" x="160" y="176" fill="#22236a"/><use href="#p" x="176" y="176" fill="#21216b"/><use href="#p" x="192" y="176" fill="#270d5a"/><use href="#p" x="208" y="176" fill="#2a277e"/><use href="#p" x="224" y="176" fill="#2a2591"/><use href="#p" x="240" y="176" fill="#2b2079"/><use href="#p" x="256" y="176" fill="#881bbe"/><use href="#p" x="272" y="176" fill="#c30edf"/><use href="#p" x="288" y="176" fill="#9c10bb"/><use href="#p" x="304" y="176" fill="#9c10d0"/><use href="#p" x="320" y="176" fill="#710cb1"/><use href="#p" x="336" y="176" fill="#680aa9"/><use href="#p" x="352" y="176" fill="#000000"/><use href="#p" x="368" y="176" fill="#000000"/><use href="#p" x="384" y="176" fill="#000000"/><use href="#p" x="16" y="192" fill="#000000"/><use href="#p" x="32" y="192" fill="#000000"/><use href="#p" x="48" y="192" fill="#000000"/><use href="#p" x="64" y="192" fill="#000000"/><use href="#p" x="80" y="192" fill="#000000"/><use href="#p" x="96" y="192" fill="#000000"/><use href="#p" x="112" y="192" fill="#000000"/><use href="#p" x="128" y="192" fill="#000000"/><use href="#p" x="144" y="192" fill="#000000"/><use href="#p" x="160" y="192" fill="#000000"/><use href="#p" x="176" y="192" fill="#1b1b59"/><use href="#p" x="192" y="192" fill="#3f32ae"/><use href="#p" x="208" y="192" fill="#3838b6"/><use href="#p" x="224" y="192" fill="#342fb3"/><use href="#p" x="240" y="192" fill="#2c2998"/><use href="#p" x="256" y="192" fill="#2f2794"/><use href="#p" x="272" y="192" fill="#b20bd4"/><use href="#p" x="288" y="192" fill="#9108b1"/><use href="#p" x="304" y="192" fill="#000000"/><use href="#p" x="320" y="192" fill="#000000"/><use href="#p" x="336" y="192" fill="#000000"/><use href="#p" x="352" y="192" fill="#1a093d"/><use href="#p" x="368" y="192" fill="#000000"/><use href="#p" x="384" y="192" fill="#000000"/><use href="#p" x="16" y="208" fill="#000000"/><use href="#p" x="32" y="208" fill="#000000"/><use href="#p" x="48" y="208" fill="#000000"/><use href="#p" x="64" y="208" fill="#000000"/><use href="#p" x="80" y="208" fill="#000000"/><use href="#p" x="96" y="208" fill="#000000"/><use href="#p" x="112" y="208" fill="#000000"/><use href="#p" x="128" y="208" fill="#000000"/><use href="#p" x="144" y="208" fill="#000000"/><use href="#p" x="160" y="208" fill="#000000"/><use href="#p" x="176" y="208" fill="#000000"/><use href="#p" x="192" y="208" fill="#000000"/><use href="#p" x="208" y="208" fill="#1b0c3c"/><use href="#p" x="224" y="208" fill="#24115a"/><use href="#p" x="240" y="208" fill="#070c27"/><use href="#p" x="256" y="208" fill="#12103d"/><use href="#p" x="272" y="208" fill="#000000"/><use href="#p" x="288" y="208" fill="#131b5c"/><use href="#p" x="304" y="208" fill="#070d27"/><use href="#p" x="320" y="208" fill="#000000"/><use href="#p" x="336" y="208" fill="#000000"/><use href="#p" x="352" y="208" fill="#160c3e"/><use href="#p" x="368" y="208" fill="#000000"/><use href="#p" x="384" y="208" fill="#000000"/><use href="#p" x="16" y="224" fill="#000000"/><use href="#p" x="32" y="224" fill="#000000"/><use href="#p" x="48" y="224" fill="#000000"/><use href="#p" x="64" y="224" fill="#000000"/><use href="#p" x="80" y="224" fill="#000000"/><use href="#p" x="96" y="224" fill="#000000"/><use href="#p" x="112" y="224" fill="#000000"/><use href="#p" x="128" y="224" fill="#000000"/><use href="#p" x="144" y="224" fill="#000000"/><use href="#p" x="160" y="224" fill="#000000"/><use href="#p" x="176" y="224" fill="#000000"/><use href="#p" x="192" y="224" fill="#000000"/><use href="#p" x="208" y="224" fill="#1d073d"/><use href="#p" x="224" y="224" fill="#000000"/><use href="#p" x="240" y="224" fill="#120526"/><use href="#p" x="256" y="224" fill="#000000"/><use href="#p" x="272" y="224" fill="#12103d"/><use href="#p" x="288" y="224" fill="#000000"/><use href="#p" x="304" y="224" fill="#1b267d"/><use href="#p" x="320" y="224" fill="#1d073d"/><use href="#p" x="336" y="224" fill="#120526"/><use href="#p" x="352" y="224" fill="#000000"/><use href="#p" x="368" y="224" fill="#000000"/><use href="#p" x="384" y="224" fill="#000000"/><use href="#p" x="16" y="240" fill="#000000"/><use href="#p" x="32" y="240" fill="#000000"/><use href="#p" x="48" y="240" fill="#000000"/><use href="#p" x="64" y="240" fill="#000000"/><use href="#p" x="80" y="240" fill="#000000"/><use href="#p" x="96" y="240" fill="#000000"/><use href="#p" x="112" y="240" fill="#000000"/><use href="#p" x="128" y="240" fill="#000000"/><use href="#p" x="144" y="240" fill="#000000"/><use href="#p" x="160" y="240" fill="#000000"/><use href="#p" x="176" y="240" fill="#000000"/><use href="#p" x="192" y="240" fill="#000000"/><use href="#p" x="208" y="240" fill="#000000"/><use href="#p" x="224" y="240" fill="#26094d"/><use href="#p" x="240" y="240" fill="#000000"/><use href="#p" x="256" y="240" fill="#000000"/><use href="#p" x="272" y="240" fill="#19093e"/><use href="#p" x="288" y="240" fill="#000000"/><use href="#p" x="304" y="240" fill="#0d0827"/><use href="#p" x="320" y="240" fill="#000000"/><use href="#p" x="336" y="240" fill="#000000"/><use href="#p" x="352" y="240" fill="#000000"/><use href="#p" x="368" y="240" fill="#000000"/><use href="#p" x="384" y="240" fill="#2c0b59"/><use href="#p" x="16" y="256" fill="#000000"/><use href="#p" x="32" y="256" fill="#000000"/><use href="#p" x="48" y="256" fill="#000000"/><use href="#p" x="64" y="256" fill="#000000"/><use href="#p" x="80" y="256" fill="#000000"/><use href="#p" x="96" y="256" fill="#000000"/><use href="#p" x="112" y="256" fill="#000000"/><use href="#p" x="128" y="256" fill="#000000"/><use href="#p" x="144" y="256" fill="#000000"/><use href="#p" x="160" y="256" fill="#000000"/><use href="#p" x="176" y="256" fill="#000000"/><use href="#p" x="192" y="256" fill="#000000"/><use href="#p" x="208" y="256" fill="#000000"/><use href="#p" x="224" y="256" fill="#000000"/><use href="#p" x="240" y="256" fill="#000000"/><use href="#p" x="256" y="256" fill="#000000"/><use href="#p" x="272" y="256" fill="#000000"/><use href="#p" x="288" y="256" fill="#000000"/><use href="#p" x="304" y="256" fill="#000000"/><use href="#p" x="320" y="256" fill="#000000"/><use href="#p" x="336" y="256" fill="#000000"/><use href="#p" x="352" y="256" fill="#000000"/><use href="#p" x="368" y="256" fill="#000000"/><use href="#p" x="384" y="256" fill="#160d3d"/><use href="#p" x="16" y="272" fill="#000000"/><use href="#p" x="32" y="272" fill="#0f0726"/><use href="#p" x="48" y="272" fill="#000000"/><use href="#p" x="64" y="272" fill="#000000"/><use href="#p" x="80" y="272" fill="#000000"/><use href="#p" x="96" y="272" fill="#0e0727"/><use href="#p" x="112" y="272" fill="#000000"/><use href="#p" x="128" y="272" fill="#000000"/><use href="#p" x="144" y="272" fill="#000000"/><use href="#p" x="160" y="272" fill="#000000"/><use href="#p" x="176" y="272" fill="#000000"/><use href="#p" x="192" y="272" fill="#000000"/><use href="#p" x="208" y="272" fill="#000000"/><use href="#p" x="224" y="272" fill="#000000"/><use href="#p" x="240" y="272" fill="#000000"/><use href="#p" x="256" y="272" fill="#000000"/><use href="#p" x="272" y="272" fill="#000000"/><use href="#p" x="288" y="272" fill="#100626"/><use href="#p" x="304" y="272" fill="#000000"/><use href="#p" x="320" y="272" fill="#000000"/><use href="#p" x="336" y="272" fill="#000000"/><use href="#p" x="352" y="272" fill="#000000"/><use href="#p" x="368" y="272" fill="#000000"/><use href="#p" x="384" y="272" fill="#000000"/><use href="#p" x="16" y="288" fill="#000000"/><use href="#p" x="32" y="288" fill="#000000"/><use href="#p" x="48" y="288" fill="#000000"/><use href="#p" x="64" y="288" fill="#000000"/><use href="#p" x="80" y="288" fill="#000000"/><use href="#p" x="96" y="288" fill="#000000"/><use href="#p" x="112" y="288" fill="#000000"/><use href="#p" x="128" y="288" fill="#000000"/><use href="#p" x="144" y="288" fill="#000000"/><use href="#p" x="160" y="288" fill="#000000"/><use href="#p" x="176" y="288" fill="#000000"/><use href="#p" x="192" y="288" fill="#000000"/><use href="#p" x="208" y="288" fill="#000000"/><use href="#p" x="224" y="288" fill="#000000"/><use href="#p" x="240" y="288" fill="#000000"/><use href="#p" x="256" y="288" fill="#000000"/><use href="#p" x="272" y="288" fill="#000000"/><use href="#p" x="288" y="288" fill="#000000"/><use href="#p" x="304" y="288" fill="#000000"/><use href="#p" x="320" y="288" fill="#000000"/><use href="#p" x="336" y="288" fill="#0e0727"/><use href="#p" x="352" y="288" fill="#000000"/><use href="#p" x="368" y="288" fill="#000000"/><use href="#p" x="384" y="288" fill="#000000"/><use href="#p" x="16" y="304" fill="#000000"/><use href="#p" x="32" y="304" fill="#000000"/><use href="#p" x="48" y="304" fill="#000000"/><use href="#p" x="64" y="304" fill="#000000"/><use href="#p" x="80" y="304" fill="#000000"/><use href="#p" x="96" y="304" fill="#000000"/><use href="#p" x="112" y="304" fill="#000000"/><use href="#p" x="128" y="304" fill="#000000"/><use href="#p" x="144" y="304" fill="#000000"/><use href="#p" x="160" y="304" fill="#000000"/><use href="#p" x="176" y="304" fill="#000000"/><use href="#p" x="192" y="304" fill="#000000"/><use href="#p" x="208" y="304" fill="#000000"/><use href="#p" x="224" y="304" fill="#000000"/><use href="#p" x="240" y="304" fill="#000000"/><use href="#p" x="256" y="304" fill="#000000"/><use href="#p" x="272" y="304" fill="#000000"/><use href="#p" x="288" y="304" fill="#000000"/><use href="#p" x="304" y="304" fill="#000000"/><use href="#p" x="320" y="304" fill="#000000"/><use href="#p" x="336" y="304" fill="#000000"/><use href="#p" x="352" y="304" fill="#000000"/><use href="#p" x="368" y="304" fill="#0d0727"/><use href="#p" x="384" y="304" fill="#000000"/><use href="#p" x="16" y="320" fill="#000000"/><use href="#p" x="32" y="320" fill="#000000"/><use href="#p" x="48" y="320" fill="#000000"/><use href="#p" x="64" y="320" fill="#000000"/><use href="#p" x="80" y="320" fill="#000000"/><use href="#p" x="96" y="320" fill="#000000"/><use href="#p" x="112" y="320" fill="#000000"/><use href="#p" x="128" y="320" fill="#000000"/><use href="#p" x="144" y="320" fill="#000000"/><use href="#p" x="160" y="320" fill="#000000"/><use href="#p" x="176" y="320" fill="#000000"/><use href="#p" x="192" y="320" fill="#000000"/><use href="#p" x="208" y="320" fill="#000000"/><use href="#p" x="224" y="320" fill="#000000"/><use href="#p" x="240" y="320" fill="#000000"/><use href="#p" x="256" y="320" fill="#000000"/><use href="#p" x="272" y="320" fill="#000000"/><use href="#p" x="288" y="320" fill="#000000"/><use href="#p" x="304" y="320" fill="#000000"/><use href="#p" x="320" y="320" fill="#0d0727"/><use href="#p" x="336" y="320" fill="#000000"/><use href="#p" x="352" y="320" fill="#000000"/><use href="#p" x="368" y="320" fill="#000000"/><use href="#p" x="384" y="320" fill="#000000"/><use href="#p" x="16" y="336" fill="#000000"/><use href="#p" x="32" y="336" fill="#000000"/><use href="#p" x="48" y="336" fill="#000000"/><use href="#p" x="64" y="336" fill="#000000"/><use href="#p" x="80" y="336" fill="#000000"/><use href="#p" x="96" y="336" fill="#000000"/><use href="#p" x="112" y="336" fill="#000000"/><use href="#p" x="128" y="336" fill="#000000"/><use href="#p" x="144" y="336" fill="#000000"/><use href="#p" x="160" y="336" fill="#000000"/><use href="#p" x="176" y="336" fill="#000000"/><use href="#p" x="192" y="336" fill="#000000"/><use href="#p" x="208" y="336" fill="#000000"/><use href="#p" x="224" y="336" fill="#000000"/><use href="#p" x="240" y="336" fill="#000000"/><use href="#p" x="256" y="336" fill="#000000"/><use href="#p" x="272" y="336" fill="#000000"/><use href="#p" x="288" y="336" fill="#000000"/><use href="#p" x="304" y="336" fill="#000000"/><use href="#p" x="320" y="336" fill="#000000"/><use href="#p" x="336" y="336" fill="#000000"/><use href="#p" x="352" y="336" fill="#000000"/><use href="#p" x="368" y="336" fill="#000000"/><use href="#p" x="384" y="336" fill="#000000"/><use href="#p" x="16" y="352" fill="#000000"/><use href="#p" x="32" y="352" fill="#000000"/><use href="#p" x="48" y="352" fill="#000000"/><use href="#p" x="64" y="352" fill="#000000"/><use href="#p" x="80" y="352" fill="#000000"/><use href="#p" x="96" y="352" fill="#000000"/><use href="#p" x="112" y="352" fill="#000000"/><use href="#p" x="128" y="352" fill="#000000"/><use href="#p" x="144" y="352" fill="#000000"/><use href="#p" x="160" y="352" fill="#000000"/><use href="#p" x="176" y="352" fill="#000000"/><use href="#p" x="192" y="352" fill="#000000"/><use href="#p" x="208" y="352" fill="#000000"/><use href="#p" x="224" y="352" fill="#000000"/><use href="#p" x="240" y="352" fill="#000000"/><use href="#p" x="256" y="352" fill="#000000"/><use href="#p" x="272" y="352" fill="#000000"/><use href="#p" x="288" y="352" fill="#000000"/><use href="#p" x="304" y="352" fill="#000000"/><use href="#p" x="320" y="352" fill="#000000"/><use href="#p" x="336" y="352" fill="#000000"/><use href="#p" x="352" y="352" fill="#000000"/><use href="#p" x="368" y="352" fill="#000000"/><use href="#p" x="384" y="352" fill="#000000"/><use href="#p" x="16" y="368" fill="#000000"/><use href="#p" x="32" y="368" fill="#000000"/><use href="#p" x="48" y="368" fill="#000000"/><use href="#p" x="64" y="368" fill="#000000"/><use href="#p" x="80" y="368" fill="#000000"/><use href="#p" x="96" y="368" fill="#000000"/><use href="#p" x="112" y="368" fill="#000000"/><use href="#p" x="128" y="368" fill="#000000"/><use href="#p" x="144" y="368" fill="#000000"/><use href="#p" x="160" y="368" fill="#000000"/><use href="#p" x="176" y="368" fill="#000000"/><use href="#p" x="192" y="368" fill="#000000"/><use href="#p" x="208" y="368" fill="#000000"/><use href="#p" x="224" y="368" fill="#000000"/><use href="#p" x="240" y="368" fill="#000000"/><use href="#p" x="256" y="368" fill="#000000"/><use href="#p" x="272" y="368" fill="#000000"/><use href="#p" x="288" y="368" fill="#000000"/><use href="#p" x="304" y="368" fill="#000000"/><use href="#p" x="320" y="368" fill="#000000"/><use href="#p" x="336" y="368" fill="#000000"/><use href="#p" x="352" y="368" fill="#000000"/><use href="#p" x="368" y="368" fill="#000000"/><use href="#p" x="384" y="368" fill="#000000"/><use href="#p" x="16" y="384" fill="#000000"/><use href="#p" x="32" y="384" fill="#000000"/><use href="#p" x="48" y="384" fill="#000000"/><use href="#p" x="64" y="384" fill="#000000"/><use href="#p" x="80" y="384" fill="#000000"/><use href="#p" x="96" y="384" fill="#000000"/><use href="#p" x="112" y="384" fill="#000000"/><use href="#p" x="128" y="384" fill="#000000"/><use href="#p" x="144" y="384" fill="#000000"/><use href="#p" x="160" y="384" fill="#000000"/><use href="#p" x="176" y="384" fill="#000000"/><use href="#p" x="192" y="384" fill="#000000"/><use href="#p" x="208" y="384" fill="#000000"/><use href="#p" x="224" y="384" fill="#000000"/><use href="#p" x="240" y="384" fill="#000000"/><use href="#p" x="256" y="384" fill="#000000"/><use href="#p" x="272" y="384" fill="#000000"/><use href="#p" x="288" y="384" fill="#000000"/><use href="#p" x="304" y="384" fill="#000000"/><use href="#p" x="320" y="384" fill="#000000"/><use href="#p" x="336" y="384" fill="#000000"/><use href="#p" x="352" y="384" fill="#000000"/><use href="#p" x="368" y="384" fill="#000000"/><use href="#p" x="384" y="384" fill="#000000"/></svg>