<svg xmlns="http://www.w3.org/2000/svg" version="1.1" viewBox="0 0 257 257"><rect x="0" y="0" width="257" height="257" rx="3" fill="#202020"/><rect id="p" x="-15" y="-15" width="15" height="15" rx="2"/><use href="#p" x="16" y="16" fill="#000000"/><use href="#p" x="32" y="16" fill="#000000"/><use href="#p" x="48" y="16" fill="#000000"/><use href="#p" x="64" y="16" fill="#000000"/><use href="#p" x="80" y="16" fill="#000000"/><use href="#p" x="96" y="16" fill="#000000"/><use href="#p" x="112" y="16" fill="#000000"/><use href="#p" x="128" y="16" fill="#000000"/><use href="#p" x="144" y="16" fill="#000000"/><use href="#p" x="160" y="16" fill="#000000"/><use href="#p" x="176" y="16" fill="#000000"/><use href="#p" x="192" y="16" fill="#000000"/><use href="#p" x="208" y="16" fill="#000000"/><use href="#p" x="224" y="16" fill="#000000"/><use href="#p" x="240" y="16" fill="#000000"/><use href="#p" x="256" y="16" fill="#000000"/><use href="#p" x="16" y="32" fill="#000000"/><use href="#p" x="32" y="32" fill="#000000"/><use href="#p" x="48" y="32" fill="#000000"/><use href="#p" x="64" y="32" fill="#000000"/><use href="#p" x="80" y="32" fill="#000000"/><use href="#p" x="96" y="32" fill="#000000"/><use href="#p" x="112" y="32" fill="#000000"/><use href="#p" x="128" y="32" fill="#000000"/><use href="#p" x="144" y="32" fill="#000000"/><use href="#p" x="160" y="32" fill="#000000"/><use href="#p" x="176" y="32" fill="#000000"/><use href="#p" x="192" y="32" fill="#000000"/><use href="#p" x="208" y="32" fill="#000000"/><use href="#p" x="224" y="32" fill="#000000"/><use href="#p" x="240" y="32" fill="#000000"/><use href="#p" x="256" y="32" fill="#000000"/><use href="#p" x="16" y="48" fill="#000000"/><use href="#p" x="32" y="48" fill="#000000"/><use href="#p" x="48" y="48" fill="#000000"/><use href="#p" x="64" y="48" fill="#000000"/><use href="#p" x="80" y="48" fill="#000000"/><use href="#p" x="96" y="48" fill="#000000"/><use href="#p" x="112" y="48" fill="#000000"/><use href="#p" x="128" y="48" fill="#000000"/><use href="#p" x="144" y="48" fill="#000000"/><use href="#p" x="160" y="48" fill="#000000"/><use href="#p" x="176" y="48" fill="#000000"/><use href="#p" x="192" y="48" fill="#000000"/><use href="#p" x="208" y="48" fill="#000000"/><use href="#p" x="224" y="48" fill="#000000"/><use href="#p" x="240" y="48" fill="#000000"/><use href="#p" x="256" y="48" fill="#000000"/><use href="#p" x="16" y="64" fill="#000000"/><use href="#p" x="32" y="64" fill="#0e3179"/><use href="#p" x="48" y="64" fill="#000000"/><use href="#p" x="64" y="64" fill="#000000"/><use href="#p" x="80" y="64" fill="#000000"/><use href="#p" x="96" y="64" fill="#000000"/><use href="#p" x="112" y="64" fill="#000000"/><use href="#p" x="128" y="64" fill="#000000"/><use href="#p" x="144" y="64" fill="#000000"/><use href="#p" x="160" y="64" fill="#000000"/><use href="#p" x="176" y="64" fill="#000000"/><use href="#p" x="192" y="64" fill="#6913a4"/><use href="#p" x="208" y="64" fill="#1d0a30"/><use href="#p" x="224" y="64" fill="#000000"/><use href="#p" x="240" y="64" fill="#000000"/><use href="#p" x="256" y="64" fill="#000000"/><use href="#p" x="16" y="80" fill="#000000"/><use href="#p" x="32" y="80" fill="#101f51"/><use href="#p" x="48" y="80" fill="#000000"/><use href="#p" x="64" y="80" fill="#000000"/><use href="#p" x="80" y="80" fill="#0a2053"/><use href="#p" x="96" y="80" fill="#000000"/><use href="#p" x="112" y="80" fill="#000000"/><use href="#p" x="128" y="80" fill="#000000"/><use href="#p" x="144" y="80" fill="#000000"/><use href="#p" x="160" y="80" fill="#000000"/><use href="#p" x="176" y="80" fill="#6c1ba8"/><use href="#p" x="192" y="80" fill="#480d5f"/><use href="#p" x="208" y="80" fill="#9016f3"/><use href="#p" x="224" y="80" fill="#000000"/><use href="#p" x="240" y="80" fill="#160833"/><use href="#p" x="256" y="80" fill="#000000"/><use href="#p" x="16" y="96" fill="#000000"/><use href="#p" x="32" y="96" fill="#000000"/><use href="#p" x="48" y="96" fill="#000000"/><use href="#p" x="64" y="96" fill="#000000"/><use href="#p" x="80" y="96" fill="#000000"/><use href="#p" x="96" y="96" fill="#4b34b2"/><use href="#p" x="112" y="96" fill="#3a2280"/><use href="#p" x="128" y="96" fill="#3f2ea8"/><use href="#p" x="144" y="96" fill="#150d31"/><use href="#p" x="160" y="96" fill="#000000"/><use href="#p" x="176" y="96" fill="#9211ae"/><use href="#p" x="192" y="96" fill="#600a6b"/><use href="#p" x="208" y="96" fill="#5f109f"/><use href="#p" x="224" y="96" fill="#7c08c6"/><use href="#p" x="240" y="96" fill="#44139d"/><use href="#p" x="256" y="96" fill="#000000"/><use href="#p" x="16" y="112" fill="#000000"/><use href="#p" x="32" y="112" fill="#000000"/><use href="#p" x="48" y="112" fill="#000000"/><use href="#p" x="64" y="112" fill="#000000"/><use href="#p" x="80" y="112" fill="#000000"/><use href="#p" x="96" y="112" fill="#000000"/><use href="#p" x="112" y="112" fill="#101032"/><use href="#p" x="128" y="112" fill="#150e31"/><use href="#p" x="144" y="112" fill="#3330ac"/><use href="#p" x="160" y="112" fill="#0e0e34"/><use href="#p" x="176" y="112" fill="#d90bdd"/><use href="#p" x="192" y="112" fill="#760b8e"/><use href="#p" x="208" y="112" fill="#780bc0"/><use href="#p" x="224" y="112" fill="#8a0acc"/><use href="#p" x="240" y="112" fill="#000000"/><use href="#p" x="256" y="112" fill="#000000"/><use href="#p" x="16" y="128" fill="#000000"/><use href="#p" x="32" y="128" fill="#000000"/><use href="#p" x="48" y="128" fill="#000000"/><use href="#p" x="64" y="128" fill="#000000"/><use href="#p" x="80" y="128" fill="#000000"/><use href="#p" x="96" y="128" fill="#000000"/><use href="#p" x="112" y="128" fill="#000000"/><use href="#p" x="128" y="128" fill="#000000"/><use href="#p" x="144" y="128" fill="#373bbe"/><use href="#p" x="160" y="128" fill="#282187"/><use href="#p" x="176" y="128" fill="#8718c8"/><use href="#p" x="192" y="128" fill="#af0cd1"/><use href="#p" x="208" y="128" fill="#4a0675"/><use href="#p" x="224" y="128" fill="#000000"/><use href="#p" x="240" y="128" fill="#000000"/><use href="#p" x="256" y="128" fill="#000000"/><use href="#p" x="16" y="144" fill="#000000"/><use href="#p" x="32" y="144" fill="#000000"/><use href="#p" x="48" y="144" fill="#000000"/><use href="#p" x="64" y="144" fill="#000000"/><use href="#p" x="80" y="144" fill="#000000"/><use href="#p" x="96" y="144" fill="#000000"/><use href="#p" x="112" y="144" fill="#000000"/><use href="#p" x="128" y="144" fill="#000000"/><use href="#p" x="144" y="144" fill="#000000"/><use href="#p" x="160" y="144" fill="#1e1152"/><use href="#p" x="176" y="144" fill="#000000"/><use href="#p" x="192" y="144" fill="#0c0e34"/><use href="#p" x="208" y="144" fill="#0b1034"/><use href="#p" x="224" y="144" fill="#000000"/><use href="#p" x="240" y="144" fill="#000000"/><use href="#p" x="256" y="144" fill="#000000"/><use href="#p" x="16" y="160" fill="#000000"/><use href="#p" x="32" y="160" fill="#000000"/><use href="#p" x="48" y="160" fill="#000000"/><use href="#p" x="64" y="160" fill="#000000"/><use href="#p" x="80" y="160" fill="#000000"/><use href="#p" x="96" y="160" fill="#000000"/><use href="#p" x="112" y="160" fill="#000000"/><use href="#p" x="128" y="160" fill="#000000"/><use href="#p" x="144" y="160" fill="#000000"/><use href="#p" x="160" y="160" fill="#000000"/><use href="#p" x="176" y="160" fill="#000000"/><use href="#p" x="192" y="160" fill="#000000"/><use href="#p" x="208" y="160" fill="#170633"/><use href="#p" x="224" y="160" fill="#000000"/><use href="#p" x="240" y="160" fill="#000000"/><use href="#p" x="256" y="160" fill="#000000"/><use href="#p" x="16" y="176" fill="#000000"/><use href="#p" x="32" y="176" fill="#000000"/><use href="#p" x="48" y="176" fill="#000000"/><use href="#p" x="64" y="176" fill="#000000"/><use href="#p" x="80" y="176" fill="#000000"/><use href="#p" x="96" y="176" fill="#000000"/><use href="#p" x="112" y="176" fill="#000000"/><use href="#p" x="128" y="176" fill="#000000"/><use href="#p" x="144" y="176" fill="#000000"/><use href="#p" x="160" y="176" fill="#000000"/><use href="#p" x="176" y="176" fill="#000000"/><use href="#p" x="192" y="176" fill="#000000"/><use href="#p" x="208" y="176" fill="#180733"/><use href="#p" x="224" y="176" fill="#000000"/><use href="#p" x="240" y="176" fill="#000000"/><use href="#p" x="256" y="176" fill="#000000"/><use href="#p" x="16" y="192" fill="#000000"/><use href="#p" x="32" y="192" fill="#000000"/><use href="#p" x="48" y="192" fill="#000000"/><use href="#p" x="64" y="192" fill="#000000"/><use href="#p" x="80" y="192" fill="#000000"/><use href="#p" x="96" y="192" fill="#000000"/><use href="#p" x="112" y="192" fill="#000000"/><use href="#p" x="128" y="192" fill="#000000"/><use href="#p" x="144" y="192" fill="#000000"/><use href="#p" x="160" y="192" fill="#000000"/><use href="#p" x="176" y="192" fill="#000000"/><use href="#p" x="192" y="192" fill="#000000"/><use href="#p" x="208" y="192" fill="#000000"/><use href="#p" x="224" y="192" fill="#000000"/><use href="#p" x="240" y="192" fill="#000000"/><use href="#p" x="256" y="192" fill="#000000"/><use href="#p" x="16" y="208" fill="#000000"/><use href="#p" x="32" y="208" fill="#000000"/><use href="#p" x="48" y="208" fill="#000000"/><use href="#p" x="64" y="208" fill="#000000"/><use href="#p" x="80" y="208" fill="#000000"/><use href="#p" x="96" y="208" fill="#000000"/><use href="#p" x="112" y="208" fill="#000000"/><use href="#p" x="128" y="208" fill="#000000"/><use href="#p" x="144" y="208" fill="#000000"/><use href="#p" x="160" y="208" fill="#000000"/><use href="#p" x="176" y="208" fill="#000000"/><use href="#p" x="192" y="208" fill="#000000"/><use href="#p" x="208" y="208" fill="#000000"/><use href="#p" x="224" y="208" fill="#000000"/><use href="#p" x="240" y="208" fill="#000000"/><use href="#p" x="256" y="208" fill="#000000"/><use href="#p" x="16" y="224" fill="#000000"/><use href="#p" x="32" y="224" fill="#000000"/><use href="#p" x="48" y="224" fill="#000000"/><use href="#p" x="64" y="224" fill="#000000"/><use href="#p" x="80" y="224" fill="#000000"/><use href="#p" x="96" y="224" fill="#000000"/><use href="#p" x="112" y="224" fill="#000000"/><use href="#p" x="128" y="224" fill="#000000"/><use href="#p" x="144" y="224" fill="#000000"/><use href="#p" x="160" y="224" fill="#000000"/><use href="#p" x="176" y="224" fill="#000000"/><use href="#p" x="192" y="224" fill="#000000"/><use href="#p" x="208" y="224" fill="#000000"/><use href="#p" x="224" y="224" fill="#000000"/><use href="#p" x="240" y="224" fill="#000000"/><use href="#p" x="256" y="224" fill="#000000"/><use href="#p" x="16" y="240" fill="#000000"/><use href="#p" x="32" y="240" fill="#000000"/><use href="#p" x="48" y="240" fill="#000000"/><use href="#p" x="64" y="240" fill="#000000"/><use href="#p" x="80" y="240" fill="#000000"/><use href="#p" x="96" y="240" fill="#000000"/><use href="#p" x="112" y="240" fill="#000000"/><use href="#p" x="128" y="240" fill="#000000"/><use href="#p" x="144" y="240" fill="#000000"/><use href="#p" x="160" y="240" fill="#000000"/><use href="#p" x="176" y="240" fill="#000000"/><use href="#p" x="192" y="240" fill="#000000"/><use href="#p" x="208" y="240" fill="#000000"/><use href="#p" x="224" y="240" fill="#000000"/><use href="#p" x="240" y="240" fill="#000000"/><use href="#p" x="256" y="240" fill="#000000"/><use href="#p" x="16" y="256" fill="#000000"/><use href="#p" x="32" y="256" fill="#000000"/><use href="#p" x="48" y="256" fill="#000000"/><use href="#p" x="64" y="256" fill="#000000"/><use href="#p" x="80" y="256" fill="#000000"/><use href="#p" x="96" y="256" fill="#000000"/><use href="#p" x="112" y="256" fill="#000000"/><use href="#p" x="128" y="256" fill="#000000"/><use href="#p" x="144" y="256" fill="#000000"/><use href="#p" x="160" y="256" fill="#000000"/><use href="#p" x="176" y="256" fill="#000000"/><use href="#p" x="192" y="256" fill="#000000"/><use href="#p" x="208" y="256" fill="#000000"/><use href="#p" x="224" y="256" fill="#000000"/><use href="#p" x="240" y="256" fill="#000000"/><use href="#p" x="256" y="256" fill="#000000"/></svg>